# xmcd
#
# Track frame offsets: 
#        150
#        7355
#        24707
#        25855
#        43712
#        69465
#        87082
#        106275
#        110387
#        131190
#        156180
#        178130
#        193380
#        212335
#        231112
#        247162
#        268807
#        286225
#
# Disc length: 4140 seconds
#
# Revision: 5
# Processed by: cddbd v1.5.2PL0 Copyright (c) Steve Scherf et al.
# Submitted via: ExactAudioCopy v1.3
#
DISCID=0b102a12
DTITLE=氣志團 - 愛羅武勇
DYEAR=2006
DGENRE=JPop
TTITLE0=THE NIGHTS
TTITLE1=夢見る頃を過ぎても
TTITLE2=～ENGINE～
TTITLE3=勇気
TTITLE4=俺達には土曜日しかない
TTITLE5=一瞬の夏
TTITLE6=月影
TTITLE7=～大関東～
TTITLE8=男帝 -Dandy-
TTITLE9=結婚闘魂行進曲｢マブダチ｣
TTITLE10=２１世紀パラダイム
TTITLE11=萌え萌えROCK'N'ROLL
TTITLE12=中の島大橋ブルーズ
TTITLE13=愛羅武勇
TTITLE14=きゃつをマークしろ！
TTITLE15=族
TTITLE16=俺とお前とGood Luck
TTITLE17=You and Me Song
EXTD=YEAR: 2006
EXTT0=
EXTT1=
EXTT2=
EXTT3=
EXTT4=
EXTT5=
EXTT6=
EXTT7=
EXTT8=
EXTT9=
EXTT10=
EXTT11=
EXTT12=
EXTT13=
EXTT14=
EXTT15=
EXTT16=
EXTT17=
PLAYORDER=
